<svg xmlns="http://www.w3.org/2000/svg" width="18.705" height="18.705" viewBox="0 0 18.705 18.705"><path d="M9.547,1.169H.585A.589.589,0,0,1,0,.585.589.589,0,0,1,.585,0H9.547a.589.589,0,0,1,.585.585A.589.589,0,0,1,9.547,1.169Z" transform="translate(0.974 6.04)" fill="#a69ffc"/><path d="M2.143,1.169H.585A.589.589,0,0,1,0,.585.589.589,0,0,1,.585,0H2.143a.589.589,0,0,1,.585.585A.589.589,0,0,1,2.143,1.169Z" transform="translate(4.092 12.275)" fill="#a69ffc"/><path d="M3.7,1.169H.585A.589.589,0,0,1,0,.585.589.589,0,0,1,.585,0H3.7a.589.589,0,0,1,.585.585A.589.589,0,0,1,3.7,1.169Z" transform="translate(7.599 12.275)" fill="#a69ffc"/><path d="M12.712,14.418H4.045C.943,14.418,0,13.483,0,10.412V4.006C0,.935.943,0,4.045,0h5.5a.589.589,0,0,1,.585.585.589.589,0,0,1-.585.585h-5.5c-2.447,0-2.876.421-2.876,2.837v6.4c0,2.416.429,2.837,2.876,2.837H12.7c2.447,0,2.876-.421,2.876-2.837V7.225a.585.585,0,1,1,1.169,0V10.4C16.756,13.483,15.813,14.418,12.712,14.418Z" transform="translate(0.974 2.143)" fill="#a69ffc"/><path d="M4.871,1.169H.585A.589.589,0,0,1,0,.585.589.589,0,0,1,.585,0H4.871a.589.589,0,0,1,.585.585A.589.589,0,0,1,4.871,1.169Z" transform="translate(12.275 4.287)" fill="#a69ffc"/><path d="M.585,5.456A.589.589,0,0,1,0,4.871V.585A.589.589,0,0,1,.585,0a.589.589,0,0,1,.585.585V4.871A.589.589,0,0,1,.585,5.456Z" transform="translate(14.418 2.143)" fill="#a69ffc"/><path d="M0,0H18.7V18.7H0Z" fill="none" opacity="0"/></svg>