<svg id="vuesax_outline_be" data-name="vuesax/outline/be" xmlns="http://www.w3.org/2000/svg" width="28.851" height="28.851" viewBox="0 0 28.851 28.851">
  <g id="be">
    <path id="Vector" d="M0,0H28.851V28.851H0Z" fill="none"/>
    <path id="Vector-2" data-name="Vector" d="M9.316,16.229H2.1a2.114,2.114,0,0,1-2.1-2.1V2.1A2.114,2.114,0,0,1,2.1,0H8.114a4.505,4.505,0,0,1,3.2,7.682,4.506,4.506,0,0,1-2,8.547ZM1.8,9.016v5.109a.3.3,0,0,0,.3.3H9.316a2.7,2.7,0,1,0,0-5.41Zm0-1.8H8.114a2.7,2.7,0,1,0,0-5.41H2.1a.3.3,0,0,0-.3.3Z" transform="translate(1.503 6.311)" fill="#685dfb"/>
    <path id="Vector-3" data-name="Vector" d="M7.718,11.42H5.71a5.71,5.71,0,1,1,5.71-5.71.908.908,0,0,1-.9.9H1.911a3.917,3.917,0,0,0,3.8,3.005H7.718a.9.9,0,0,1,0,1.8ZM1.911,4.808H9.521a3.911,3.911,0,0,0-7.609,0Z" transform="translate(15.928 11.12)" fill="#685dfb"/>
    <path id="Vector-4" data-name="Vector" d="M4.508,1.8H.9A.908.908,0,0,1,0,.9.908.908,0,0,1,.9,0H4.508a.908.908,0,0,1,.9.9A.908.908,0,0,1,4.508,1.8Z" transform="translate(18.933 8.114)" fill="#685dfb"/>
    <path id="Vector-5" data-name="Vector" d="M0,0H28.851V28.851H0Z" fill="none" opacity="0"/>
  </g>
</svg>
