<svg id="vuesax_linear_dribbble" data-name="vuesax/linear/dribbble" xmlns="http://www.w3.org/2000/svg" width="28.851" height="28.851" viewBox="0 0 28.851 28.851">
  <g id="dribbble">
    <path id="Vector" d="M19.234,0A16.092,16.092,0,0,1,3.811,8.042L0,7.694" transform="translate(3.005 5.758)" fill="none" stroke="#ff075c" stroke-linecap="round" stroke-linejoin="round" stroke-width="1.5"/>
    <path id="Vector-2" data-name="Vector" d="M0,8.107A16.092,16.092,0,0,1,15.423.065l3.811.349" transform="translate(6.612 15.178)" fill="none" stroke="#ff075c" stroke-linecap="round" stroke-linejoin="round" stroke-width="1.5"/>
    <path id="Vector-3" data-name="Vector" d="M24.042,12.021A12.021,12.021,0,1,1,12.021,0,12.021,12.021,0,0,1,24.042,12.021Z" transform="translate(2.404 2.404)" fill="none" stroke="#ff075c" stroke-linecap="round" stroke-linejoin="round" stroke-width="1.5"/>
    <path id="Vector-4" data-name="Vector" d="M0,0,3.823,4.748A27.6,27.6,0,0,1,9.16,15.567l1.455,6" transform="translate(9.172 3.606)" fill="none" stroke="#ff075c" stroke-linecap="round" stroke-linejoin="round" stroke-width="1.5"/>
    <path id="Vector-5" data-name="Vector" d="M0,0H28.851V28.851H0Z" fill="none" opacity="0"/>
  </g>
</svg>
