<svg xmlns="http://www.w3.org/2000/svg" width="18.705" height="18.705" viewBox="0 0 18.705 18.705"><path d="M1.783,14.1a1.786,1.786,0,0,1-1.239-.468,1.856,1.856,0,0,1-.53-1.582L.3,9.527A2.81,2.81,0,0,1,.98,8.077L7.379,1.3c1.6-1.691,3.266-1.738,4.957-.14s1.738,3.266.14,4.957l-6.4,6.773a2.809,2.809,0,0,1-1.411.756l-2.51.429C2.025,14.086,1.908,14.1,1.783,14.1Zm8.1-12.945a2.381,2.381,0,0,0-1.652.935L1.83,8.872a1.8,1.8,0,0,0-.366.779l-.288,2.525a.685.685,0,0,0,.171.6.7.7,0,0,0,.608.14l2.51-.429a1.741,1.741,0,0,0,.756-.405l6.4-6.773c.966-1.029,1.317-1.98-.094-3.3A2.464,2.464,0,0,0,9.881,1.156Z" transform="translate(2.534 1.112)" fill="#a69ffc"/><path d="M4.823,5.181H4.768A5.346,5.346,0,0,1,.006.677.594.594,0,0,1,.5.006.594.594,0,0,1,1.168.5,4.187,4.187,0,0,0,4.893,4.02a.585.585,0,0,1,.522.639A.6.6,0,0,1,4.823,5.181Z" transform="translate(8.691 3.353)" fill="#a69ffc"/><path d="M14.613,1.169H.585A.589.589,0,0,1,0,.585.589.589,0,0,1,.585,0H14.613A.589.589,0,0,1,15.2.585.589.589,0,0,1,14.613,1.169Z" transform="translate(1.754 16.562)" fill="#a69ffc"/><path d="M0,0H18.7V18.7H0Z" fill="none" opacity="0"/></svg>