<svg xmlns="http://www.w3.org/2000/svg" width="25.762" height="25.762" viewBox="0 0 25.762 25.762">
  <g id="vuesax_outline_candle-2" data-name="vuesax/outline/candle-2" transform="translate(-428 -254)">
    <g id="candle-2" transform="translate(428 254)">
      <path id="Vector" d="M8.319,1.61H.805A.811.811,0,0,1,0,.805.811.811,0,0,1,.805,0H8.319a.811.811,0,0,1,.805.805A.811.811,0,0,1,8.319,1.61Z" transform="translate(15.296 17.979)" fill="#5d72fb"/>
      <path id="Vector-2" data-name="Vector" d="M4.025,1.61H.805A.811.811,0,0,1,0,.805.811.811,0,0,1,.805,0h3.22A.811.811,0,0,1,4.83.805.811.811,0,0,1,4.025,1.61Z" transform="translate(1.342 17.979)" fill="#5d72fb"/>
      <path id="Vector-3" data-name="Vector" d="M4.025,1.61H.805A.811.811,0,0,1,0,.805.811.811,0,0,1,.805,0h3.22A.811.811,0,0,1,4.83.805.811.811,0,0,1,4.025,1.61Z" transform="translate(19.59 6.172)" fill="#5d72fb"/>
      <path id="Vector-4" data-name="Vector" d="M8.319,1.61H.805A.811.811,0,0,1,0,.805.811.811,0,0,1,.805,0H8.319a.811.811,0,0,1,.805.805A.811.811,0,0,1,8.319,1.61Z" transform="translate(1.342 6.172)" fill="#5d72fb"/>
      <path id="Vector-5" data-name="Vector" d="M9.392,8.05H2.952A2.714,2.714,0,0,1,0,5.1V2.952A2.714,2.714,0,0,1,2.952,0h6.44a2.714,2.714,0,0,1,2.952,2.952V5.1A2.714,2.714,0,0,1,9.392,8.05ZM2.952,1.61C2,1.61,1.61,2,1.61,2.952V5.1C1.61,6.054,2,6.44,2.952,6.44h6.44c.955,0,1.342-.386,1.342-1.342V2.952c0-.955-.386-1.342-1.342-1.342Z" transform="translate(4.562 14.759)" fill="#5d72fb"/>
      <path id="Vector-6" data-name="Vector" d="M9.392,8.05H2.952A2.714,2.714,0,0,1,0,5.1V2.952A2.714,2.714,0,0,1,2.952,0h6.44a2.714,2.714,0,0,1,2.952,2.952V5.1A2.714,2.714,0,0,1,9.392,8.05ZM2.952,1.61C2,1.61,1.61,2,1.61,2.952V5.1C1.61,6.054,2,6.44,2.952,6.44h6.44c.955,0,1.342-.386,1.342-1.342V2.952c0-.955-.386-1.342-1.342-1.342Z" transform="translate(8.856 2.952)" fill="#5d72fb"/>
      <path id="Vector-7" data-name="Vector" d="M0,0H25.762V25.762H0Z" fill="none" opacity="0"/>
    </g>
  </g>
</svg>
