<svg id="vuesax_outline_nem-_xem_" data-name="vuesax/outline/nem-(xem)" xmlns="http://www.w3.org/2000/svg" width="28.851" height="28.851" viewBox="0 0 28.851 28.851">
  <g id="nem-_xem_" data-name="nem-(xem)">
    <path id="Vector" d="M0,0H28.851V28.851H0Z" fill="none"/>
    <path id="Vector-2" data-name="Vector" d="M12.971,25.534l-.445-.216C12.406,25.258,0,18.887,0,4.077v-.5l.433-.264c.12-.072,12.634-7.405,24.968,0l.433.264v.5c0,.565-.144,13.824-12.454,21.205ZM1.815,4.606c.252,11.829,9.04,17.659,11.1,18.861C22.624,17.36,23.874,6.986,24.03,4.581,14.041-1.093,4.027,3.463,1.815,4.606Z" transform="translate(1.491 1.934)" fill="#d0d617"/>
    <path id="Vector-3" data-name="Vector" d="M6.915,13.4a5.519,5.519,0,0,1-1.238-.144C3.177,12.663,1.29,10.319.039,6.28A.905.905,0,1,1,1.77,5.751C2.816,9.129,4.271,11.064,6.1,11.5c2.176.5,4.652-1.262,5.746-2.284-.986-7.561,5.6-9.04,5.674-9.052l.721-.144A.91.91,0,0,1,19.3.726a.91.91,0,0,1-.709,1.058l-.709.132c-.192.048-5.217,1.214-4.183,7.453a.874.874,0,0,1-.24.769C13.323,10.307,10.341,13.4,6.915,13.4Z" transform="translate(1.62 2.484)" fill="#d0d617"/>
    <path id="Vector-4" data-name="Vector" d="M6.124,12.026a.855.855,0,0,1-.385-.084.9.9,0,0,1-.421-1.2,6.429,6.429,0,0,0,.132-4.6c-.7-1.827-2.344-3.306-4.9-4.412A.886.886,0,0,1,.077.546.9.9,0,0,1,1.267.077c3.041,1.3,5.013,3.138,5.89,5.458a8.153,8.153,0,0,1-.2,6A.966.966,0,0,1,6.124,12.026Z" transform="translate(13.531 11.126)" fill="#d0d617"/>
    <path id="Vector-5" data-name="Vector" d="M0,0H28.851V28.851H0Z" fill="none" opacity="0"/>
  </g>
</svg>
