<svg xmlns="http://www.w3.org/2000/svg" width="24" height="24" viewBox="0 0 24 24">
  <g id="vuesax_outline_setting" data-name="vuesax/outline/setting" transform="translate(-236 -190)">
    <g id="setting">
      <path id="Vector" d="M9.76,21.267a3.8,3.8,0,0,1-1.88-.46l-5.5-3.17C.14,16.128,0,15.9,0,13.528V7.747c0-2.37.13-2.6,2.33-4.09L7.87.458a4.071,4.071,0,0,1,3.75,0l5.52,3.18c2.24,1.51,2.38,1.74,2.38,4.11v5.77c0,2.37-.13,2.6-2.33,4.09l-5.54,3.2A3.86,3.86,0,0,1,9.76,21.267Zm0-19.76a2.289,2.289,0,0,0-1.12.25l-5.5,3.18c-1.63,1.1-1.63,1.1-1.63,2.81v5.77c0,1.71,0,1.71,1.67,2.84l5.46,3.15a2.609,2.609,0,0,0,2.25,0l5.5-3.18c1.62-1.1,1.62-1.1,1.62-2.81V7.747c0-1.71,0-1.71-1.67-2.84l-5.46-3.15A2.289,2.289,0,0,0,9.76,1.507Z" transform="translate(238.24 191.363)" fill="#292d32"/>
      <path id="Vector-2" data-name="Vector" d="M3.75,7.5A3.75,3.75,0,1,1,7.5,3.75,3.751,3.751,0,0,1,3.75,7.5Zm0-6A2.25,2.25,0,1,0,6,3.75,2.253,2.253,0,0,0,3.75,1.5Z" transform="translate(244.25 198.25)" fill="#292d32"/>
      <path id="Vector-3" data-name="Vector" d="M0,0H24V24H0Z" transform="translate(236 190)" fill="none" opacity="0"/>
    </g>
  </g>
</svg>
