<svg xmlns="http://www.w3.org/2000/svg" width="21.098" height="21.098" viewBox="0 0 21.098 21.098">
  <g id="vuesax_outline_sun" data-name="vuesax/outline/sun" transform="translate(-172 -188)">
    <g id="sun" transform="translate(172 188)">
      <path id="Vector" d="M6.373,12.747a6.373,6.373,0,1,1,6.373-6.373A6.378,6.378,0,0,1,6.373,12.747Zm0-11.428a5.055,5.055,0,1,0,5.055,5.055A5.061,5.061,0,0,0,6.373,1.319Z" transform="translate(4.176 4.176)" fill="#814efb"/>
      <path id="Vector-2" data-name="Vector" d="M9.67,19.3a.852.852,0,0,1-.879-.844v-.07a.879.879,0,0,1,1.758,0A.912.912,0,0,1,9.67,19.3Zm6.277-2.479a.9.9,0,0,1-.624-.255l-.114-.114a.876.876,0,1,1,1.24-1.24l.114.114a.875.875,0,0,1,0,1.24A.865.865,0,0,1,15.947,16.826Zm-12.553,0a.9.9,0,0,1-.624-.255.875.875,0,0,1,0-1.24l.114-.114a.876.876,0,1,1,1.24,1.24l-.114.114A.88.88,0,0,1,3.393,16.826Zm15.067-6.277h-.07a.879.879,0,0,1,0-1.758.912.912,0,0,1,.914.879A.852.852,0,0,1,18.461,10.549Zm-17.511,0H.879a.879.879,0,0,1,0-1.758.912.912,0,0,1,.914.879A.852.852,0,0,1,.949,10.549ZM15.832,4.387a.9.9,0,0,1-.624-.255.875.875,0,0,1,0-1.24l.114-.114a.876.876,0,0,1,1.24,1.24l-.114.114A.865.865,0,0,1,15.832,4.387Zm-12.325,0a.9.9,0,0,1-.624-.255l-.114-.123a.876.876,0,0,1,1.24-1.24l.114.114a.875.875,0,0,1,0,1.24A.853.853,0,0,1,3.508,4.387ZM9.67,1.793A.852.852,0,0,1,8.791.949V.879a.879.879,0,0,1,1.758,0A.912.912,0,0,1,9.67,1.793Z" transform="translate(0.879 0.879)" fill="#814efb"/>
      <path id="Vector-3" data-name="Vector" d="M0,0H21.1V21.1H0Z" fill="none" opacity="0"/>
    </g>
  </g>
</svg>
